<svg xmlns="http://www.w3.org/2000/svg" width="900" height="1270" viewBox="0 0 900 1270">
  <defs>
    <linearGradient id="background" x1="0" y1="0" x2="0" y2="1">
      <stop offset="0" stop-color="#8fc5e7"/>
      <stop offset="1" stop-color="#d8e4ec"/>
    </linearGradient>
    <filter id="shadow" x="-30%" y="-20%" width="160%" height="160%">
      <feDropShadow dx="0" dy="18" stdDeviation="24" flood-color="#183549" flood-opacity="0.28"/>
    </filter>
    <style>
      .ui { font-family: -apple-system, BlinkMacSystemFont, "SF Pro Display", Helvetica, Arial, sans-serif; fill: #202124; }
      .title { font-size: 30px; font-weight: 700; }
      .provider { font-size: 27px; font-weight: 700; }
      .body { font-size: 21px; }
      .small { font-size: 18px; fill: #777b80; }
      .tiny { font-size: 16px; fill: #969a9f; }
      .menu { font-size: 20px; font-weight: 600; fill: #111820; }
      .divider { stroke: #dedfe1; stroke-width: 2; }
      .track { fill: #e7e8ea; }
      .bar { fill: #1687f8; }
      .bar-warning { fill: #f3a51e; }
    </style>
  </defs>

  <rect width="900" height="1270" fill="url(#background)"/>
  <rect width="900" height="48" fill="#70b4df" fill-opacity="0.72"/>
  <g class="ui menu" transform="translate(568 12)">
    <path d="M0 16 C4 3 8 29 12 16 C16 3 20 29 24 16" fill="none" stroke="#111820" stroke-width="3" stroke-linecap="round"/>
    <text x="28" y="20">Codex 100%</text>
  </g>

  <g filter="url(#shadow)">
    <rect x="165" y="66" width="570" height="1140" rx="28" fill="#fbfbfc"/>
  </g>

  <g class="ui" transform="translate(200 105)">
    <text class="title" x="0" y="24">Agents Status</text>
    <g transform="translate(486 5)" fill="none" stroke="#202124" stroke-width="3" stroke-linecap="round">
      <path d="M10 3 A15 15 0 1 1 2 15"/>
      <path d="M9 0 L9 8 L17 8"/>
    </g>

    <g transform="translate(0 64)">
      <text x="0" y="25" font-size="29">‹/›</text>
      <text class="provider" x="54" y="25">Codex</text>
      <g transform="translate(149 5)" stroke="#27bd66" stroke-width="3" fill="none">
        <path d="M0 14 C5 2 8 26 13 14 C18 2 21 26 26 14"/>
      </g>
      <circle cx="500" cy="14" r="13" fill="#2ac968"/>
      <path d="M494 14 L499 19 L507 9" fill="none" stroke="white" stroke-width="3" stroke-linecap="round" stroke-linejoin="round"/>

      <text class="body" x="0" y="72">Weekly</text>
      <text class="body" x="500" y="72" text-anchor="end">100% left  ·  in 7 days</text>
      <rect class="track" x="0" y="84" width="500" height="10" rx="5"/>
      <rect class="bar" x="0" y="84" width="500" height="10" rx="5"/>

      <text class="body" x="0" y="132">GPT-5.3-Codex-Spark weekly</text>
      <text class="body" x="500" y="132" text-anchor="end">100% left</text>
      <rect class="track" x="0" y="144" width="500" height="10" rx="5"/>
      <rect class="bar" x="0" y="144" width="500" height="10" rx="5"/>

      <path d="M0 180 H17 V195 H0 Z M0 185 A5 5 0 0 0 0 190 M17 185 A5 5 0 0 1 17 190" fill="none" stroke="#555a60" stroke-width="2"/>
      <text class="small" x="26" y="194">Limit reset credits</text>
      <text class="small" x="500" y="194" text-anchor="end">1 available</text>
      <text class="tiny" x="26" y="222">Full reset</text>
      <text class="tiny" x="500" y="222" text-anchor="end">Expires Aug 13, 2026</text>

      <text class="small" x="0" y="263">Account token activity</text>
      <text class="small" x="0" y="296">Today</text>
      <text class="small" x="500" y="296" text-anchor="end">1.24M tokens · ref. $3.72</text>
      <text class="small" x="0" y="329">This month</text>
      <text class="small" x="500" y="329" text-anchor="end">42.8M tokens · ref. $128</text>
      <text class="small" x="0" y="362">Lifetime</text>
      <text class="small" x="500" y="362" text-anchor="end">2.4B tokens · ref. $7,200</text>
      <text class="tiny" x="0" y="391">API-equivalent reference · not billing</text>
      <text class="tiny" x="0" y="420">Account API · data through Jul 21</text>
      <text class="tiny" x="500" y="420" text-anchor="end">Updated now</text>
    </g>

    <line class="divider" x1="0" y1="523" x2="500" y2="523"/>

    <g transform="translate(0 545)">
      <text x="0" y="25" font-size="27">✦</text>
      <text class="provider" x="54" y="25">Claude Code</text>
      <circle cx="500" cy="14" r="13" fill="#2ac968"/>
      <path d="M494 14 L499 19 L507 9" fill="none" stroke="white" stroke-width="3" stroke-linecap="round" stroke-linejoin="round"/>

      <text class="body" x="0" y="72">5-hour</text>
      <text class="body" x="500" y="72" text-anchor="end">83% left  ·  in 3 hours</text>
      <rect class="track" x="0" y="84" width="500" height="10" rx="5"/>
      <rect class="bar" x="0" y="84" width="415" height="10" rx="5"/>

      <text class="body" x="0" y="132">Weekly</text>
      <text class="body" x="500" y="132" text-anchor="end">61% left  ·  in 4 days</text>
      <rect class="track" x="0" y="144" width="500" height="10" rx="5"/>
      <rect class="bar" x="0" y="144" width="305" height="10" rx="5"/>

      <text class="small" x="0" y="193">Today</text>
      <text class="small" x="500" y="193" text-anchor="end">112K  tokens</text>
      <text class="small" x="0" y="228">API cost estimate</text>
      <text class="small" x="500" y="228" text-anchor="end">₩2,180</text>
      <text class="tiny" x="0" y="260">Max · Claude Code OAuth</text>
      <text class="tiny" x="0" y="290">Account API</text>
      <text class="tiny" x="500" y="290" text-anchor="end">Updated now</text>
    </g>

    <line class="divider" x1="0" y1="859" x2="500" y2="859"/>

    <g transform="translate(0 882)">
      <text x="0" y="25" font-size="29">◇</text>
      <text class="provider" x="54" y="25">Gemini CLI</text>
      <circle cx="500" cy="14" r="13" fill="#2ac968"/>
      <path d="M494 14 L499 19 L507 9" fill="none" stroke="white" stroke-width="3" stroke-linecap="round" stroke-linejoin="round"/>

      <text class="small" x="0" y="75">Latest session</text>
      <text class="small" x="500" y="75" text-anchor="end">24.6K  tokens</text>
      <text class="tiny" x="0" y="112">Local session</text>
      <text class="tiny" x="500" y="112" text-anchor="end">Updated 2 min ago</text>
    </g>

    <line class="divider" x1="0" y1="1031" x2="500" y2="1031"/>
    <text class="body" x="0" y="1075">Settings…</text>
    <text class="body" x="500" y="1075" text-anchor="end">Quit</text>
  </g>
</svg>
